<svg id="visual" viewBox="0 0 1920 1080" width="1920" height="1080" xmlns="http://www.w3.org/2000/svg" xmlns:xlink="http://www.w3.org/1999/xlink" version="1.1"><rect x="0" y="0" width="1920" height="1080" fill="#101010"></rect><path d="M0 717L45.7 728C91.3 739 182.7 761 274.2 756.3C365.7 751.7 457.3 720.3 548.8 696.2C640.3 672 731.7 655 823 654C914.3 653 1005.7 668 1097 690.5C1188.3 713 1279.7 743 1371.2 746.3C1462.7 749.7 1554.3 726.3 1645.8 731.7C1737.3 737 1828.7 771 1874.3 788L1920 805L1920 1081L1874.3 1081C1828.7 1081 1737.3 1081 1645.8 1081C1554.3 1081 1462.7 1081 1371.2 1081C1279.7 1081 1188.3 1081 1097 1081C1005.7 1081 914.3 1081 823 1081C731.7 1081 640.3 1081 548.8 1081C457.3 1081 365.7 1081 274.2 1081C182.7 1081 91.3 1081 45.7 1081L0 1081Z" fill="#cccccc"></path><path d="M0 721L45.7 737C91.3 753 182.7 785 274.2 799.3C365.7 813.7 457.3 810.3 548.8 812.3C640.3 814.3 731.7 821.7 823 821.2C914.3 820.7 1005.7 812.3 1097 801.8C1188.3 791.3 1279.7 778.7 1371.2 770.5C1462.7 762.3 1554.3 758.7 1645.8 766.8C1737.3 775 1828.7 795 1874.3 805L1920 815L1920 1081L1874.3 1081C1828.7 1081 1737.3 1081 1645.8 1081C1554.3 1081 1462.7 1081 1371.2 1081C1279.7 1081 1188.3 1081 1097 1081C1005.7 1081 914.3 1081 823 1081C731.7 1081 640.3 1081 548.8 1081C457.3 1081 365.7 1081 274.2 1081C182.7 1081 91.3 1081 45.7 1081L0 1081Z" fill="#d8d8d8"></path><path d="M0 864L45.7 861.8C91.3 859.7 182.7 855.3 274.2 860.3C365.7 865.3 457.3 879.7 548.8 886.8C640.3 894 731.7 894 823 897.3C914.3 900.7 1005.7 907.3 1097 911.2C1188.3 915 1279.7 916 1371.2 914.8C1462.7 913.7 1554.3 910.3 1645.8 899.2C1737.3 888 1828.7 869 1874.3 859.5L1920 850L1920 1081L1874.3 1081C1828.7 1081 1737.3 1081 1645.8 1081C1554.3 1081 1462.7 1081 1371.2 1081C1279.7 1081 1188.3 1081 1097 1081C1005.7 1081 914.3 1081 823 1081C731.7 1081 640.3 1081 548.8 1081C457.3 1081 365.7 1081 274.2 1081C182.7 1081 91.3 1081 45.7 1081L0 1081Z" fill="#e5e5e5"></path><path d="M0 907L45.7 918.3C91.3 929.7 182.7 952.3 274.2 956.2C365.7 960 457.3 945 548.8 933C640.3 921 731.7 912 823 911.7C914.3 911.3 1005.7 919.7 1097 917.8C1188.3 916 1279.7 904 1371.2 896.3C1462.7 888.7 1554.3 885.3 1645.8 891.5C1737.3 897.7 1828.7 913.3 1874.3 921.2L1920 929L1920 1081L1874.3 1081C1828.7 1081 1737.3 1081 1645.8 1081C1554.3 1081 1462.7 1081 1371.2 1081C1279.7 1081 1188.3 1081 1097 1081C1005.7 1081 914.3 1081 823 1081C731.7 1081 640.3 1081 548.8 1081C457.3 1081 365.7 1081 274.2 1081C182.7 1081 91.3 1081 45.7 1081L0 1081Z" fill="#f2f2f2"></path><path d="M0 968L45.7 969.7C91.3 971.3 182.7 974.7 274.2 973.3C365.7 972 457.3 966 548.8 969.8C640.3 973.7 731.7 987.3 823 985.5C914.3 983.7 1005.7 966.3 1097 966.7C1188.3 967 1279.7 985 1371.2 995.8C1462.7 1006.7 1554.3 1010.3 1645.8 1000.5C1737.3 990.7 1828.7 967.3 1874.3 955.7L1920 944L1920 1081L1874.3 1081C1828.7 1081 1737.3 1081 1645.8 1081C1554.3 1081 1462.7 1081 1371.2 1081C1279.7 1081 1188.3 1081 1097 1081C1005.7 1081 914.3 1081 823 1081C731.7 1081 640.3 1081 548.8 1081C457.3 1081 365.7 1081 274.2 1081C182.7 1081 91.3 1081 45.7 1081L0 1081Z" fill="#ffffff"></path></svg>